<?xml version="1.0" standalone="no"?>
<!DOCTYPE svg PUBLIC "-//W3C//DTD SVG 20010904//EN"
 "http://www.w3.org/TR/2001/REC-SVG-20010904/DTD/svg10.dtd">
<svg version="1.0" xmlns="http://www.w3.org/2000/svg"
 width="700.000000pt" height="700.000000pt" viewBox="0 0 700.000000 700.000000"
 preserveAspectRatio="xMidYMid meet">
<metadata>
Created by potrace 1.14, written by Peter Selinger 2001-2017
</metadata>
<g transform="translate(0.000000,700.000000) scale(0.100000,-0.100000)"
fill="#000000" stroke="none">
<path d="M1055 5422 c-262 -22 -494 -157 -642 -372 -70 -102 -129 -248 -154
-377 -11 -60 -8 -289 5 -342 45 -187 160 -376 320 -528 178 -168 404 -289 711
-381 l30 -9 6 -144 c3 -79 9 -157 12 -174 4 -16 9 -43 12 -60 18 -114 84 -304
149 -434 21 -40 36 -74 34 -76 -5 -5 -397 -165 -403 -165 -22 0 -89 -58 -111
-95 -62 -107 -16 -242 101 -296 77 -35 60 -40 549 159 l120 49 76 -76 c42 -42
102 -98 133 -126 31 -27 57 -52 57 -56 0 -3 -68 -95 -150 -205 -157 -208 -176
-243 -165 -316 12 -77 66 -147 127 -167 114 -35 186 -9 265 96 15 21 36 47 45
58 9 11 62 81 118 155 56 74 105 135 108 135 4 0 75 -33 157 -73 83 -41 161
-79 174 -85 15 -8 28 -27 36 -53 21 -70 92 -207 132 -253 113 -132 206 -196
358 -249 163 -57 374 -49 540 21 131 55 263 165 340 287 43 68 84 155 91 198
8 44 22 58 71 77 53 20 232 111 248 126 24 24 49 -1 190 -186 187 -248 207
-265 310 -267 138 -3 240 140 193 272 -6 19 -78 123 -160 232 -81 109 -148
202 -148 206 0 5 21 26 47 48 26 21 83 74 126 118 l79 78 91 -37 c51 -21 106
-44 122 -51 213 -93 313 -128 366 -127 204 2 282 270 110 377 -20 12 -124 58
-231 101 -107 43 -196 79 -198 81 -2 1 14 35 36 75 77 146 149 359 167 499 4
30 9 66 11 80 2 14 6 72 10 130 3 58 9 108 13 111 3 3 58 23 121 43 148 48
376 162 483 242 219 164 366 368 433 599 22 74 26 112 27 215 2 216 -62 406
-194 582 -45 61 -142 153 -194 185 -161 100 -311 145 -483 143 -59 0 -116 0
-127 -1 -36 -1 -179 -30 -242 -49 -73 -22 -216 -81 -264 -108 -19 -11 -53 -30
-76 -43 -74 -42 -193 -141 -278 -231 -45 -49 -86 -88 -91 -88 -8 0 -82 29
-169 65 -75 32 -347 110 -450 130 -44 8 -158 24 -213 30 -26 3 -67 8 -92 11
-70 10 -480 11 -567 2 -77 -8 -364 -46 -399 -52 -11 -2 -39 -7 -64 -11 -58 -9
-59 -10 -165 -34 -140 -32 -213 -55 -352 -111 l-128 -52 -30 38 c-100 126
-275 268 -426 348 -213 113 -489 176 -694 158z"/>
</g>
</svg>
